<?xml version="1.0" encoding="UTF-8"?>
<!DOCTYPE svg PUBLIC "-//W3C//DTD SVG 1.1//EN" "http://www.w3.org/Graphics/SVG/1.1/DTD/svg11.dtd">
<svg xmlns="http://www.w3.org/2000/svg" version="1.1" width="55px" height="58px" style="shape-rendering:geometricPrecision; text-rendering:geometricPrecision; image-rendering:optimizeQuality; fill-rule:evenodd; clip-rule:evenodd" xmlns:xlink="http://www.w3.org/1999/xlink">
<g><path style="opacity:0.785" fill="#fefefe" d="M 6.5,2.5 C 14.2233,2.1996 21.8899,2.53293 29.5,3.5C 30.5836,4.66508 31.4169,5.99842 32,7.5C 32.4996,14.1583 32.6663,20.825 32.5,27.5C 35.505,27.253 38.005,28.253 40,30.5C 41.1737,34.0458 41.8404,37.7125 42,41.5C 43.3561,42.3802 44.8561,42.7135 46.5,42.5C 47.5207,36.8704 47.6873,31.2037 47,25.5C 45.108,24.87 43.4413,23.87 42,22.5C 40.8099,18.6192 40.1432,14.6192 40,10.5C 36.4616,7.42269 36.9616,5.92269 41.5,6C 44.3333,8.83333 47.1667,11.6667 50,14.5C 50.6667,24.1667 50.6667,33.8333 50,43.5C 49.5,44.6667 48.6667,45.5 47.5,46C 43.2194,47.4582 40.0527,46.2916 38,42.5C 37.6667,39.5 37.3333,36.5 37,33.5C 35.8904,31.9632 34.3904,31.2965 32.5,31.5C 32.1707,37.5368 32.5041,43.5368 33.5,49.5C 35.4879,50.2888 35.8213,51.4555 34.5,53C 23.5,53.6667 12.5,53.6667 1.5,53C 0.663368,51.9887 0.330034,50.8221 0.5,49.5C 1.5,49.5 2.5,49.5 3.5,49.5C 3.33342,34.8295 3.50009,20.1629 4,5.5C 5.04499,4.62656 5.87833,3.62656 6.5,2.5 Z M 8.5,6.5 C 14.8682,6.17033 21.2015,6.50367 27.5,7.5C 28.4435,12.1001 28.7768,16.7668 28.5,21.5C 21.5,21.5 14.5,21.5 7.5,21.5C 7.22128,16.4053 7.55462,11.4053 8.5,6.5 Z M 44.5,15.5 C 46.7082,16.9175 47.5415,18.9175 47,21.5C 44.9614,20.0217 44.1281,18.0217 44.5,15.5 Z M 7.5,25.5 C 14.5,25.5 21.5,25.5 28.5,25.5C 28.5,33.5 28.5,41.5 28.5,49.5C 21.5,49.5 14.5,49.5 7.5,49.5C 7.5,41.5 7.5,33.5 7.5,25.5 Z M 16.5,36.5 C 17.4959,36.4142 18.3292,36.7476 19,37.5C 19.4935,39.1341 19.6602,40.8008 19.5,42.5C 18.1667,42.5 16.8333,42.5 15.5,42.5C 15.3253,40.3792 15.6586,38.3792 16.5,36.5 Z"/></g>
<g><path style="opacity:0.788" fill="#fefefe" d="M 16.5,29.5 C 22.7572,32.3443 24.9239,37.0109 23,43.5C 19.3333,47.5 15.6667,47.5 12,43.5C 10.4543,37.794 11.9543,33.1273 16.5,29.5 Z M 16.5,36.5 C 15.6586,38.3792 15.3253,40.3792 15.5,42.5C 16.8333,42.5 18.1667,42.5 19.5,42.5C 19.6602,40.8008 19.4935,39.1341 19,37.5C 18.3292,36.7476 17.4959,36.4142 16.5,36.5 Z"/></g>
</svg>
