<?xml version="1.0" encoding="UTF-8"?><svg id="Layer_2" xmlns="http://www.w3.org/2000/svg" viewBox="0 0 67.5 90"><defs><style>.cls-1{fill:#231f20;}</style></defs><g id="Layer_1-2"><path class="cls-1" d="m67.5,52.82c0,21.88-13.89,37.18-33.75,37.18S0,74.71,0,52.82C0,39.76,12.21,18.51,29.72,1.54c1.23-1.03,2.46-1.54,3.87-1.54s2.95.51,4.03,1.54c17.6,16.92,29.88,38.03,29.88,51.28Zm-5.62,0c0-11.5-12.09-31.78-28.14-47.2,0,0,0,0,0,0C15.5,23.15,5.62,43.04,5.62,52.82c0,18.87,11.3,31.55,28.12,31.55s28.12-12.67,28.12-31.55Zm-5.62,5.2c0,11.43-10.09,20.72-22.5,20.72s-22.5-9.3-22.5-20.72c0-7.75,4.55-12.57,6.04-14.01.27-.28.64-.42.99-.42s.72.14.99.42c.26.26.42.62.42.99v7.03c0,5.45,4.39,9.84,9.84,9.84s9.84-4.39,9.84-9.84c0-12.66-19.79-11.39-6.94-28.9.37-.47.86-.63,1.3-.63.21,0,.4.04.56.09.29.09.95.4.95,1.19,0,5.91,4.42,9.67,9.08,13.65,5.87,5.03,11.94,10.21,11.94,20.6Zm-5.62,0c0-6.94-3.48-10.69-8.18-14.79,1.48,2.32,2.56,5.16,2.56,8.8,0,8.53-6.94,15.47-15.47,15.47-4.96,0-9.37-2.34-12.2-5.96,1.77,6.64,8.46,11.59,16.42,11.59,9.3,0,16.88-6.77,16.88-15.1Z"/></g></svg>