<?xml version="1.0" encoding="UTF-8"?><svg id="Layer_2" xmlns="http://www.w3.org/2000/svg" viewBox="0 0 90 90"><defs><style>.cls-1{fill:#131212;}.cls-2{fill:none;}</style></defs><g id="Layer_1-2"><path class="cls-2" d="m30.86,71.21c3.09,0,5.25-2.07,5.25-5.01,0-.68-.23-3.03-4.59-7.82-.34-.38-.98-.38-1.33,0-4.36,4.79-4.59,7.14-4.59,7.82,0,2.95,2.16,5.02,5.25,5.02Z"/><path class="cls-2" d="m11.09,84.38h39.53v-45H11.09v45Zm19.16-36.55c.34-.32.88-.32,1.22,0,5.79,5.46,9.89,12.55,9.89,16.82,0,6.89-4.32,10.94-10.5,10.94s-10.5-4.05-10.5-10.94c0-4.26,4.08-11.35,9.89-16.82Z"/><path class="cls-2" d="m44.84,5.62h-28.12c-2.95,0-5.62,2.52-5.62,5.62v22.5h39.53V11.25c0-3.11-2.51-5.62-5.78-5.62Z"/><path class="cls-2" d="m78.75,19.99v8.14c0,3.11,2.51,5.62,5.62,5.62v-6.13c0-1.58-.67-3.08-1.83-4.15l-3.8-3.48Z"/><path d="m86.34,19.32l-14.13-12.95c-1.14-1.05-2.92-.97-3.97.17-1.05,1.14-.97,2.92.18,3.97l4.71,4.32v13.29c0,6.21,5.04,11.25,11.25,11.25v28.12c0,3.11-2.51,5.62-5.62,5.62s-5.62-2.51-5.62-5.62v-8.44c0-7.77-6.29-14.06-14.06-14.06h-2.81V11.25c0-6.21-5.04-11.25-11.41-11.25h-27.97C10.66,0,5.62,5.04,5.62,11.25v73.12h-2.81c-1.55,0-2.81,1.27-2.81,2.81s1.26,2.81,2.81,2.81h56.25c1.55,0,2.81-1.27,2.81-2.81s-1.27-2.81-2.81-2.81h-2.81v-33.75h2.81c4.66,0,8.44,3.78,8.44,8.44v8.44c0,6.21,5.04,11.25,11.25,11.25s11.25-5.04,11.25-11.25V27.62c0-3.15-1.32-6.15-3.66-8.3Zm-35.72,65.06H11.09v-45h39.53v45Zm0-50.62H11.09V11.25c0-3.11,2.68-5.62,5.62-5.62h28.12c3.27,0,5.78,2.52,5.78,5.62v22.5Zm33.75,0c-3.11,0-5.62-2.51-5.62-5.62v-8.14l3.8,3.48c1.16,1.07,1.83,2.57,1.83,4.15v6.13Z"/><path class="cls-1" d="m30.86,75.59c6.18,0,10.5-4.05,10.5-10.94,0-4.27-4.1-11.36-9.89-16.82-.34-.32-.88-.32-1.22,0-5.82,5.48-9.89,12.56-9.89,16.82,0,6.89,4.32,10.94,10.5,10.94Zm-.66-17.21c.34-.38.98-.38,1.33,0,4.36,4.79,4.59,7.14,4.59,7.82,0,2.95-2.16,5.01-5.25,5.01s-5.25-2.06-5.25-5.02c0-.68.23-3.03,4.59-7.82Z"/></g></svg>